<?xml version="1.0" encoding="UTF-8"?><svg id="a" xmlns="http://www.w3.org/2000/svg" xmlns:xlink="http://www.w3.org/1999/xlink" viewBox="0 0 512 512"><defs><style>.d{fill:#d8b6c6;}.e{fill:url(#b);}</style><linearGradient id="b" x1="256" y1="513.87" x2="256" y2="1.87" gradientTransform="translate(0 513.87) scale(1 -1)" gradientUnits="userSpaceOnUse"><stop offset="0" stop-color="#fff"/><stop offset="1" stop-color="#e6e6e6"/></linearGradient></defs><circle class="e" cx="256" cy="256" r="256"/><g id="c"><path class="d" d="M340.45,158.28c-16.11-20.14-33.16-14.91-40.16-31.35-6.81-15.99,7.08-25.31,7.35-51.42,.34-32.37-22.38-61.78-30.36-59.75-5.14,1.31-6.22,18.84-8.33,53.87-.59,9.72-1.25,24.76-7.83,43.09-2.42,6.74-6.5,17.83-11.26,17.64-3.12-.13-5.85-5.06-10.28-20.09-6.41-21.69-8.91-39.15-9.31-42.11-5.29-39.58-4.44-45-7.83-46.04-8.19-2.51-29.33,23.71-34.28,54.85-1.2,7.59-1.11,13.39-.42,18.21,1.33,9.18,4.24,12.99,5.72,23.84,.05,.4,1.03,7.8,.58,13.78-1.95,26.11-31.59,32.07-36.97,67.95-.11,.75-.18,1.22-.27,2.07-1.43,11.41-4.74,27.47,21.37,56.82,18.1,20.36,36.36,17.89,48.49,41.14,12.08,23.16-20.28,34.95-7.35,55.09,14.45,22.52,36.39,16.15,46.28,37.47,7.3,15.75-2.9,23.05,.78,47.72,5.08,34.02,29.87,56.15,31.54,55.14,2.02-1.23-31.52-35.74-22.04-69.79,5.69-20.39,22.2-24.16,22.04-42.61-.1-10.52-5.53-14.69-22.73-39.98-19.72-28.98,4.26-39.97,5.83-48.9,1.15-6.5,1.67-6.23,3.36-10.12,4.81-11,33.32-19.27,33.32-19.27,6.18-4.07,18.79-12.62,27.97-27.92,10.48-17.46,9.96-17.54,10-26.45,.03-10.03,.11-33.8-15.19-52.89l-.02,.05Zm-119.58,70.16c-6.63,0-12-5.37-12-12s5.37-12,12-12,12,5.37,12,12-5.37,12-12,12Zm56.93,0c-6.63,0-12-5.37-12-12s5.37-12,12-12,12,5.37,12,12-5.37,12-12,12Z"/></g></svg>